<svg width="64" height="64" viewBox="0 0 64 64" fill="none" xmlns="http://www.w3.org/2000/svg" role="img" aria-label="Memoza">
  <defs>
    <clipPath id="pageClip">
      <path d="M19 8 H36 L48 20 V53 A3 3 0 0 1 45 56 H19 A3 3 0 0 1 16 53 V11 A3 3 0 0 1 19 8 Z"/>
    </clipPath>
  </defs>

  <g clip-path="url(#pageClip)">
    <g transform="rotate(38 32 32)">
      <rect x="2"  y="-40" width="12" height="144" fill="#8A3E24"/>
      <rect x="14" y="-40" width="12" height="144" fill="#A64E30"/>
      <rect x="26" y="-40" width="12" height="144" fill="#C15F3C"/>
      <rect x="38" y="-40" width="12" height="144" fill="#D99A2B"/>
      <rect x="50" y="-40" width="12" height="144" fill="#E3A544"/>
    </g>
  </g>

  <path d="M36 8 L48 20 H39 A3 3 0 0 1 36 17 Z" fill="#8A3E24"/>
  <path d="M36 8 L48 20 H39 A3 3 0 0 1 36 17 Z" fill="none" stroke="#E3A544" stroke-width="0.6" stroke-opacity="0.8"/>

  <path d="M19 8 H36 L48 20 V53 A3 3 0 0 1 45 56 H19 A3 3 0 0 1 16 53 V11 A3 3 0 0 1 19 8 Z"
        fill="none" stroke="#E3A544" stroke-width="0.9" stroke-opacity="0.55"/>

  <line x1="23" y1="47" x2="35" y2="47" stroke="#FCFAF5" stroke-width="1.6" stroke-linecap="round" opacity="0.85"/>
</svg>
